{"title":"Straight.Outta.Compton.2015.WEB-DL.XviD.MP3-RARBG","uid":13107461,"size":1853938902,"categoryP":"video","categoryS":"movies","magnet":"?xt=urn:btih:a8d57b846dc9325db6d4517fb24c38ddbd9523ea&amp;dn=Straight.Outta.Compton.2015.WEB-DL.XviD.MP3-RARBG&amp;tr=udp%3A%2F%2Ftracker.leechers-paradise.org%3A6969&amp;tr=udp%3A%2F%2Fzer0day.ch%3A1337&amp;tr=udp%3A%2F%2Fopen.demonii.com%3A1337&amp;tr=udp%3A%2F%2Ftracker.coppersurfer.tk%3A6969&amp;tr=udp%3A%2F%2Fexodus.desync.com%3A6969","seeders":1,"leechers":2,"uploader":"TheRival","files":5,"time":1451352706,"description":"Screens: \nhttp://extraimago.com/image/DvI \nhttp://extraimago.com/image/Dvd \nhttp://extraimago.com/image/Dvh \nhttp://extraimago.com/image/Dvb \nhttp://extraimago.com/image/Dv3 \nhttp://extraimago.com/image/Dv9\r\n\r\n\r\nVideo\r\nID                                       : 0\r\nFormat                                   : MPEG-4 Visual\r\nFormat profile                           :   \r\nFormat settings, BVOP                    : No\r\nFormat settings, QPel                    : No\r\nFormat settings, GMC                     : No warppoints\r\nFormat settings, Matrix                  : Default (H.263)\r\nCodec ID                                 : XVID\r\nCodec ID/Hint                            : XviD\r\nDuration                                 : 2h 26mn\r\nBit rate                                 : 1 476 Kbps\r\nWidth                                    : 720 pixels\r\nHeight                                   : 304 pixels\r\nDisplay aspect ratio                     : 2.40:1\r\nFrame rate                               : 23.976 fps\r\nColor space                              : YUV\r\nChroma subsampling                       : 4:2:0\r\nBit depth                                : 8 bits\r\nScan type                                : Progressive\r\nCompression mode                         : Lossy\r\nBits/(Pixel*Frame)                       : 0.281\r\nStream size                              : 1.52 GiB (88%)\r\nWriting library                          : Lavc56.13.100\r\n\r\nAudio\r\nID                                       : 1\r\nFormat                                   : MPEG Audio\r\nFormat version                           : Version 1\r\nFormat profile                           : Layer 3\r\nMode                                     : Joint stereo\r\nMode extension                           : MS Stereo\r\nCodec ID                                 : 55\r\nCodec ID/Hint                            : MP3\r\nDuration                                 : 2h 26mn\r\nBit rate mode                            : Constant\r\nBit rate                                 : 192 Kbps\r\nChannel(s)                               : 2 channels\r\nSampling rate                            : 48.0 KHz\r\nCompression mode                         : Lossy\r\nStream size                              : 201 MiB (11%)\r\nAlignment                                : Aligned on interleaves\r\nInterleave, duration                     : 24 ms (0.58 video frame)\r\nInterleave, preload duration             : 504 ms\r\nWriting library                          : LAME3.99.5","torrent":{"xt":"urn:btih:a8d57b846dc9325db6d4517fb24c38ddbd9523ea","amp;dn":"Straight.Outta.Compton.2015.WEB-DL.XviD.MP3-RARBG","amp;tr":["udp%3A%2F%2Ftracker.leechers-paradise.org%3A6969","udp%3A%2F%2Fzer0day.ch%3A1337","udp%3A%2F%2Fopen.demonii.com%3A1337","udp%3A%2F%2Ftracker.coppersurfer.tk%3A6969","udp%3A%2F%2Fexodus.desync.com%3A6969"],"infoHash":"a8d57b846dc9325db6d4517fb24c38ddbd9523ea","infoHashBuffer":{"type":"Buffer","data":[168,213,123,132,109,201,50,93,182,212,81,127,178,76,56,221,189,149,35,234]},"announce":[],"urlList":[]}}